<?xml version="1.0" encoding="UTF-8" standalone="no"?>
<!-- Created with Inkscape (http://www.inkscape.org/) -->

<svg
   width="128"
   height="128"
   viewBox="0 0 33.866666 33.866666"
   version="1.1"
   id="svg1"
   xml:space="preserve"
   inkscape:version="1.3.2 (091e20e, 2023-11-25)"
   sodipodi:docname="nightingale.svg"
   xmlns:inkscape="http://www.inkscape.org/namespaces/inkscape"
   xmlns:sodipodi="http://sodipodi.sourceforge.net/DTD/sodipodi-0.dtd"
   xmlns="http://www.w3.org/2000/svg"
   xmlns:svg="http://www.w3.org/2000/svg"><sodipodi:namedview
     id="namedview1"
     pagecolor="#ffffff"
     bordercolor="#000000"
     borderopacity="0.25"
     inkscape:showpageshadow="2"
     inkscape:pageopacity="0.0"
     inkscape:pagecheckerboard="0"
     inkscape:deskcolor="#d1d1d1"
     inkscape:document-units="mm"
     showgrid="false"
     inkscape:zoom="4.1569587"
     inkscape:cx="35.723232"
     inkscape:cy="101.0354"
     inkscape:window-width="2560"
     inkscape:window-height="1547"
     inkscape:window-x="0"
     inkscape:window-y="25"
     inkscape:window-maximized="1"
     inkscape:current-layer="g6" /><defs
     id="defs1" /><g
     inkscape:label="Layer 1"
     inkscape:groupmode="layer"
     id="layer1"><g
       id="g6"><path
         id="path2"
         style="fill:#dbcea5;fill-opacity:1;stroke-width:0.266323"
         d="m 12.303642,0.4345988 c -0.018,0.0031 -0.02992,0.0309541 -0.04082,0.0744141 -1.201048,2.1344931 -1.241704,4.3175004 -1.083654,6.6879638 -0.0054,0.3757182 0.127035,0.7479617 0.29292,1.0502405 0.309464,0.5639144 0.389585,0.6916886 2.065075,1.2390255 2.063978,0.6742413 2.902467,1.0751063 3.81062,1.8221113 0.43306,0.356214 0.659334,0.631974 1.459343,1.775602 0.370761,0.530006 0.65315,0.756118 1.060917,0.850077 0.305459,0.07038 1.241797,0.269985 1.283126,-0.721403 0.05904,-1.41619 -0.149016,-2.234476 -0.873849,-3.203939 C 20.121957,9.8121534 19.413813,9.1351608 18.703768,8.5043905 15.391977,5.5623604 14.114553,4.0044079 12.7894,1.2924276 12.468548,0.63578725 12.357642,0.4254358 12.303642,0.4345988 Z M 2.001945,3.3827393 c -1.57548569,-0.040976 2.3184188,17.1340877 9.885701,15.9065227 3.116072,-0.978246 1.423448,-0.103531 -0.217557,1.545642 -1.134821,1.143478 -1.8441754,1.799078 -2.254643,2.08256 -0.8232972,0.568595 -3.3800997,2.43994 -3.9816691,2.914551 -1.5392145,1.214374 -3.1055991,2.640317 -3.2008383,2.913517 -0.5202874,2.208005 1.0424287,3.464856 2.6251628,4.686536 0.046489,0.01173 0.5691888,-0.817691 1.1637533,-1.783354 1.1819518,-1.919661 1.8122957,-2.843663 2.9998168,-4.398181 1.2583055,-1.64718 1.9093815,-2.222994 3.0918005,-2.7342 0.748222,-0.323487 1.610651,-0.482841 3.115056,-0.575159 2.707521,-0.166143 4.46074,-0.591371 6.348966,-1.538924 1.594481,-0.800148 2.503948,-1.546446 4.180107,-3.432348 2.085196,-2.346129 3.01867,-2.939909 5.360913,-3.410128 0.406937,-0.0817 0.818817,-0.168215 0.915706,-0.192237 l 0.176217,-0.04392 -0.211357,-0.06098 c -0.116265,-0.03373 -0.706846,-0.153812 -1.312064,-0.26665 -0.605219,-0.112836 -1.229673,-0.27113 -1.388029,-0.351917 -0.158358,-0.08079 -0.55123,-0.367798 -0.872815,-0.637687 -0.32158,-0.269887 -0.77603,-0.588396 -1.010274,-0.707967 -0.896429,-0.457592 -2.312508,-0.525747 -3.649907,-0.1757 -0.776938,0.203353 -1.292161,0.408916 -2.397269,0.958081 -0.732573,0.364039 -0.88685,0.415479 -1.24747,0.415479 -0.780669,0 -1.227045,-0.319354 -1.963704,-1.406116 -0.303204,-0.447303 -0.70569,-0.95749 -0.894519,-1.133781 C 16.227302,10.989435 14.878052,10.371675 12.022522,9.5570394 9.4784613,9.1109237 7.3378847,8.2926457 5.2771973,6.7246541 4.0044727,6.001979 3.336706,4.9041779 2.5595221,3.7518252 2.2844996,3.4097601 2.0179822,3.3831564 2.001945,3.3827393 Z M 27.303243,14.304553 c 0.219188,0 0.396875,0.177687 0.396875,0.396875 0,0.219188 -0.177687,0.396875 -0.396875,0.396875 -0.219188,0 -0.396875,-0.177687 -0.396875,-0.396875 0,-0.219188 0.177687,-0.396875 0.396875,-0.396875 z"
         sodipodi:nodetypes="cccscssssccscsccssccssssssscccsssssssscsssssssss" /><path
         id="path5"
         style="opacity:1;fill:#ad502f;fill-opacity:1;stroke:none;stroke-width:0.354444"
         d="m 12.303642,0.4345988 c -0.018,0.0031 -0.02994,0.0309541 -0.04082,0.0744141 -1.201042,2.1344866 -1.241704,4.3175076 -1.083654,6.6879638 -0.0027,0.1878585 0.02897,0.3746544 0.08216,0.5524211 0.05319,0.1777666 0.127898,0.3465051 0.21084,0.497644 0.309464,0.5639129 0.389506,0.6918655 2.06499,1.2392009 2.063972,0.6742383 2.90247,1.0751063 3.81062,1.8221113 0.43306,0.356211 0.659337,0.631977 1.459343,1.775602 0.09269,0.132501 0.180116,0.245933 0.2651,0.343131 0.254847,0.291389 0.490099,0.436502 0.795817,0.506946 0.305459,0.07038 1.241797,0.269982 1.283126,-0.721403 0.05904,-1.416184 -0.149016,-2.234479 -0.873849,-3.203939 C 20.121947,9.8121552 19.41381,9.1351587 18.703768,8.5043905 15.391986,5.5623691 14.11455,4.0043998 12.7894,1.2924276 12.468551,0.63578914 12.357642,0.4254358 12.303642,0.4345988 Z M 2.001945,3.3827393 c -0.023545,-6.124e-4 -0.046072,0.00286 -0.067179,0.00982 -1.598e-4,5.31e-5 -3.57e-4,-5.36e-5 -5.167e-4,0 -0.00921,0.00306 -0.017095,0.00948 -0.025838,0.013953 -0.011692,0.00599 -0.023757,0.011166 -0.034623,0.019637 -0.01234,0.00963 -0.021279,0.029608 -0.032556,0.042375 -0.023992,0.027153 -0.047969,0.053717 -0.067179,0.094568 -0.010186,0.021647 -0.016989,0.052678 -0.025838,0.078031 -0.015238,0.043671 -0.03108,0.085783 -0.042375,0.1400432 -0.00736,0.035385 -0.01136,0.079664 -0.017053,0.1193725 -0.00825,0.057537 -0.01694,0.1135851 -0.021704,0.179834 -0.00347,0.04823 -0.00353,0.1039274 -0.00517,0.1565796 -0.0021,0.06775 -0.00505,0.1345303 -0.00413,0.2092895 7.971e-4,0.063973 0.00475,0.1347413 0.00775,0.2036052 0.0029,0.066817 0.00537,0.1334209 0.010335,0.2046386 0.010019,0.1433389 0.035951,0.317567 0.05426,0.4774903 0.022242,0.1943363 0.041621,0.3827941 0.075964,0.5989298 0.026473,0.1664631 0.06513,0.3518414 0.098702,0.5296835 0.042787,0.2266851 0.084302,0.4508172 0.1384928,0.6934977 0.045729,0.2046165 0.1028367,0.4224997 0.1565796,0.6366536 0.060589,0.2415006 0.1200231,0.4819169 0.1906861,0.7332886 0.063081,0.2242431 0.1367319,0.4559737 0.2077392,0.686263 0.079502,0.2579017 0.1592376,0.5155363 0.2485637,0.7787639 0.1349406,0.3974217 0.2760555,0.7977187 0.4330485,1.2004437 0.031085,0.07977 0.063661,0.159479 0.095601,0.239262 0.064462,0.160958 0.1294797,0.322029 0.1974039,0.482658 0.039807,0.09417 0.081484,0.187724 0.1224732,0.281636 0.067579,0.154781 0.1354162,0.309315 0.2061889,0.463021 0.043459,0.09441 0.089186,0.187772 0.133842,0.281637 0.074402,0.156337 0.1486389,0.312746 0.2263428,0.467155 0.04101,0.08152 0.084166,0.161488 0.1260905,0.242362 0.083925,0.161839 0.167715,0.32385 0.2552815,0.482658 0.036494,0.06621 0.075015,0.130247 0.1121379,0.195854 0.097992,0.173121 0.196345,0.346303 0.2986898,0.514697 0.00927,0.01526 0.019112,0.02974 0.028422,0.04496 0.4038292,0.66007 0.8404937,1.280894 1.3099976,1.836581 0.128855,0.152508 0.2616396,0.296401 0.3953247,0.438733 0.034437,0.03667 0.067564,0.07618 0.1023193,0.112137 0.1184962,0.122561 0.24111,0.236059 0.3632853,0.34985 0.053943,0.05025 0.1065751,0.104 0.1612305,0.152445 0.114035,0.10106 0.2311825,0.192957 0.3482992,0.285771 0.066512,0.05272 0.1319716,0.108716 0.199471,0.158647 0.1145024,0.08467 0.2320086,0.159901 0.3493327,0.236161 0.073302,0.04766 0.1457456,0.09788 0.2201416,0.14211 0.1164565,0.06921 0.2358983,0.129219 0.3550171,0.189653 0.078694,0.03993 0.1568304,0.08188 0.236678,0.117822 0.117206,0.05275 0.2368925,0.09675 0.3565674,0.14056 0.086359,0.03162 0.1722963,0.06468 0.2599325,0.09147 0.1782624,0.05448 0.3580724,0.102888 0.5415694,0.136426 0.209769,0.03834 0.422718,0.06265 0.639237,0.07183 0.315383,0.01338 0.637411,-0.0029 0.966866,-0.05633 3.116069,-0.978245 1.423446,-0.103529 -0.217557,1.545642 -0.129488,0.130476 -0.200763,0.193148 -0.319361,0.311092 h 0.0026 c -0.08359,0.08323 -0.132983,0.126333 -0.211873,0.204122 -0.571812,0.562865 -1.071378,1.04175 -1.3942307,1.309481 -0.128097,0.107333 -0.2391005,0.19387 -0.3317627,0.257865 -0.8232948,0.568595 -3.3801015,2.43994 -3.9816691,2.914551 -1.53921,1.214371 -3.1055994,2.640317 -3.2008383,2.913517 -0.5202856,2.207999 1.0424335,3.464859 2.6251628,4.686536 0.046489,0.01173 0.5691903,-0.817694 1.1637533,-1.783354 1.1819482,-1.919655 1.8122993,-2.843669 2.9998168,-4.398181 1.1377349,-1.489347 1.7828379,-2.10153 2.7693409,-2.583305 2.908133,-2.648257 5.955299,-4.92808 9.52857,-6.51582 1.480912,-0.745273 2.723014,-1.41841 3.602411,-1.213374 2.46825,0.575484 2.732658,-0.423297 3.87935,-0.632519 1.33e-4,-6.9e-5 3.83e-4,6.8e-5 5.17e-4,0 0.139122,-0.07176 0.28526,-0.137165 0.431498,-0.198438 0.04597,-0.01942 0.09265,-0.03933 0.139526,-0.05788 0.130839,-0.05121 0.267258,-0.101114 0.406694,-0.146245 0.08547,-0.02807 0.176755,-0.05442 0.266133,-0.08061 0.11649,-0.0336 0.232481,-0.06919 0.356568,-0.100252 0.224874,-0.05706 0.4609,-0.111004 0.716235,-0.162264 0.406937,-0.0817 0.818817,-0.168215 0.915706,-0.192237 l 0.176217,-0.04392 -0.211357,-0.06098 c -0.116262,-0.03373 -0.706849,-0.153812 -1.312064,-0.26665 -0.605219,-0.112836 -1.229673,-0.27113 -1.388029,-0.351917 -0.158358,-0.08079 -0.55123,-0.367798 -0.872815,-0.637687 -0.32158,-0.269887 -0.776033,-0.588396 -1.010274,-0.707967 -0.896426,-0.457589 -2.312511,-0.525744 -3.649907,-0.1757 -0.776935,0.203353 -1.292167,0.408919 -2.397269,0.958081 -0.732573,0.364039 -0.88685,0.415479 -1.24747,0.415479 -0.780666,0 -1.227048,-0.319357 -1.963704,-1.406116 -0.303204,-0.4473 -0.70569,-0.95749 -0.894519,-1.133781 C 16.227305,10.989428 14.878043,10.371672 12.022522,9.5570394 9.4784688,9.1109249 7.3378784,8.2926412 5.2771973,6.7246541 4.6408368,6.3633177 4.1557661,5.9080114 3.7325887,5.3991536 3.5209988,5.1447395 3.3249228,4.8770127 3.1331421,4.6007528 2.9413623,4.3244819 2.7538291,4.0397963 2.5595337,3.751709 2.2845121,3.4096448 2.0179822,3.3831564 2.001945,3.3827393 Z M 27.303243,14.304553 c 0.219188,0 0.396875,0.177687 0.396875,0.396875 0,0.219188 -0.177687,0.396875 -0.396875,0.396875 -0.219188,0 -0.396875,-0.177687 -0.396875,-0.396875 0,-0.219188 0.177687,-0.396875 0.396875,-0.396875 z"
         sodipodi:nodetypes="cccssccscssccccsscccccccccccccccccccccccccccccccscsccccccccccscssccccccssccssccscccccccscccssssssssscccccssssss" /></g></g></svg>
